<?xml version="1.0" standalone="no"?>
<!DOCTYPE svg PUBLIC "-//W3C//DTD SVG 20010904//EN"
 "http://www.w3.org/TR/2001/REC-SVG-20010904/DTD/svg10.dtd">
<svg version="1.0" xmlns="http://www.w3.org/2000/svg"
 width="512.000000pt" height="512.000000pt" viewBox="0 0 512.000000 512.000000"
 preserveAspectRatio="xMidYMid meet">
<metadata>
Created by potrace 1.14, written by Peter Selinger 2001-2017
</metadata>
<g transform="translate(0.000000,512.000000) scale(0.100000,-0.100000)"
fill="#000000" stroke="none">
<path d="M2468 4905 c-2 -2 -30 -6 -63 -9 -284 -32 -565 -192 -763 -433 -284
-348 -334 -873 -121 -1271 65 -123 110 -183 209 -283 99 -100 227 -191 327
-235 32 -13 67 -29 78 -34 145 -66 434 -96 620 -64 441 76 801 397 929 826 13
46 28 103 31 128 4 25 9 54 12 65 6 28 5 249 -1 277 -3 13 -8 41 -11 63 -47
330 -300 680 -608 836 -104 53 -248 104 -326 115 -19 2 -48 7 -65 10 -32 6
-243 13 -248 9z"/>
<path d="M1660 2541 c-210 -68 -467 -249 -671 -471 -83 -91 -246 -301 -271
-349 -7 -15 -25 -44 -39 -66 -124 -189 -272 -563 -313 -790 -3 -16 -8 -41 -11
-55 -2 -14 -9 -56 -15 -95 -6 -38 -12 -70 -13 -72 -2 -1 -39 -3 -84 -4 -88 -2
-122 -12 -169 -52 -43 -37 -68 -92 -70 -157 -3 -84 39 -154 119 -195 37 -20
66 -20 2440 -20 2270 0 2404 1 2434 18 154 84 162 288 16 378 -31 19 -55 24
-135 27 -54 3 -96 7 -94 11 3 4 -6 66 -20 138 -71 388 -252 789 -511 1134 -45
60 -99 128 -120 151 -53 60 -214 217 -259 253 -121 98 -277 184 -389 216 -69
19 -172 17 -211 -3 -29 -16 -104 -95 -304 -317 -41 -46 -95 -106 -120 -134
-79 -86 -84 -92 -155 -172 -38 -43 -84 -93 -101 -112 l-31 -33 -109 121 c-60
67 -119 133 -132 148 -13 14 -58 64 -100 110 -42 46 -93 102 -112 123 -19 22
-84 91 -145 153 -137 142 -178 157 -305 116z m1818 -460 c128 -66 334 -272
479 -476 152 -216 276 -472 348 -720 25 -88 30 -108 44 -198 l8 -47 -1798 0
-1798 0 4 29 c42 331 221 729 456 1018 127 155 302 310 433 383 l40 22 41 -44
c35 -36 242 -263 404 -444 25 -28 100 -113 166 -188 135 -156 170 -180 255
-179 96 0 109 10 330 258 30 33 59 65 64 71 6 6 45 49 86 95 41 46 98 108 125
139 28 30 55 59 60 66 6 6 42 46 81 90 40 43 84 94 100 112 16 17 30 32 32 32
1 0 19 -9 40 -19z"/>
</g>
</svg>
